<?xml version="1.0" encoding="UTF-8"?>
<svg id="Layer_1" data-name="Layer 1" xmlns="http://www.w3.org/2000/svg" viewBox="0 0 10.03 10.03">
  <defs>
    <style>
      .cls-1 {
        fill: #040404;
      }

      .cls-1, .cls-2, .cls-3 {
        stroke-width: 0px;
      }

      .cls-2 {
        fill: #0a0b10;
      }

      .cls-3 {
        fill: #fdfdfd;
      }
    </style>
  </defs>
  <path class="cls-1" d="M0,5.52c.01-.4-.03-.8.03-1.2.12-.85.41-1.62.92-2.32C1.69.99,2.66.33,3.87.03c.06-.02.12-.02.18-.02.55,0,1.1.02,1.65,0,.48-.02.9.14,1.33.32.68.29,1.26.74,1.75,1.29.34.39.61.82.82,1.3.22.5.36,1.01.41,1.55.04.35,0,.7,0,1.05-.07.14-.06.31-.1.46-.48,2.04-1.73,3.36-3.76,3.91-.22.06-.46.09-.69.14h-1c-.08-.07-.18-.04-.26-.06-2.09-.41-3.42-1.66-4.04-3.68-.08-.25-.11-.51-.17-.77ZM1.98,6.02c-.02.12.04.26.03.39,0,.08.03.13.1.18.32.22.66.41,1.02.56.44.18.48.16.69-.28.03-.06.04-.09-.04-.12-.11-.04-.21-.09-.32-.15-.04-.02-.11-.04-.07-.1.03-.04.07-.09.14-.06.05.02.1.04.16.06.72.28,1.45.35,2.21.16.21-.05.41-.12.61-.21.08-.03.14,0,.17.05.04.08-.05.09-.09.11-.1.05-.2.1-.3.14-.08.03-.08.05-.04.12.08.12.15.23.22.35.04.07.07.07.15.05.49-.16.94-.39,1.36-.69.06-.04.08-.08.08-.15.03-.36.02-.72-.03-1.08-.1-.8-.4-1.53-.84-2.2-.03-.05-.07-.08-.13-.11-.31-.13-.62-.22-.94-.31-.17-.05-.27-.01-.32.16-.03.11-.09.13-.2.12-.35-.05-.7-.06-1.05,0-.17.03-.27,0-.32-.18-.03-.11-.09-.13-.22-.1-.31.07-.61.16-.9.27-.09.04-.18.07-.24.16-.57.86-.86,1.8-.88,2.85Z"/>
  <path class="cls-3" d="M1.98,6.02c.02-1.05.32-1.99.88-2.85.06-.09.15-.13.24-.16.29-.11.59-.21.9-.27.12-.03.18,0,.22.1.05.17.15.21.32.18.35-.05.7-.04,1.05,0,.11.02.17,0,.2-.12.05-.17.15-.21.32-.16.32.09.64.18.94.31.05.02.09.06.13.11.44.67.74,1.4.84,2.2.05.36.06.72.03,1.08,0,.07-.03.11-.08.15-.42.3-.87.53-1.36.69-.07.02-.11.02-.15-.05-.07-.12-.14-.24-.22-.35-.04-.06-.03-.09.04-.12.1-.04.2-.09.3-.14.04-.02.13-.03.09-.11-.03-.06-.09-.09-.17-.05-.2.08-.4.16-.61.21-.75.19-1.49.13-2.21-.16-.05-.02-.1-.04-.16-.06-.07-.02-.11.02-.14.06-.04.07.03.08.07.1.1.05.21.11.32.15.08.03.07.06.04.12-.21.44-.25.46-.69.28-.36-.15-.7-.34-1.02-.56-.07-.05-.1-.09-.1-.18,0-.14-.05-.27-.03-.39ZM4.57,5.24c.01-.33-.23-.62-.54-.63-.32,0-.57.26-.58.61,0,.34.24.62.54.63.31.01.57-.26.58-.61ZM6.59,5.25c.01-.34-.22-.62-.53-.63-.31-.01-.57.26-.58.6,0,.33.23.62.53.64.31.01.56-.25.58-.6Z"/>
  <path class="cls-2" d="M4.57,5.24c-.01.35-.27.62-.58.61-.3-.01-.54-.3-.54-.63,0-.35.26-.61.58-.61.3,0,.55.29.54.63Z"/>
  <path class="cls-2" d="M6.59,5.25c-.01.36-.26.62-.58.6-.3-.01-.54-.3-.53-.64,0-.35.27-.61.58-.6.31.01.54.29.53.63Z"/>
</svg>