<?xml version="1.0" encoding="UTF-8"?>
<svg id="Camada_2" data-name="Camada 2" xmlns="http://www.w3.org/2000/svg" viewBox="0 0 20.06 20.06">
  <defs>
    <style>
      .cls-1 {
        fill: #010202;
      }

      .cls-1, .cls-2 {
        stroke-width: 0px;
      }

      .cls-2 {
        fill: #fff;
      }
    </style>
  </defs>
  <g id="katman_1" data-name="katman 1">
    <path class="cls-1" d="m10.03,0h0c5.54,0,10.03,4.49,10.03,10.03h0c0,5.54-4.49,10.03-10.03,10.03h0C4.49,20.06,0,15.57,0,10.03H0C0,4.49,4.49,0,10.03,0Z"/>
    <path class="cls-2" d="m16.9,6.59c-.17-.61-.65-1.1-1.26-1.26-1.12-.31-5.61-.31-5.61-.31,0,0-4.49,0-5.61.3-.6.17-1.1.66-1.26,1.28-.3,1.12-.3,3.45-.3,3.45,0,0,0,2.34.3,3.45.17.61.65,1.1,1.26,1.26,1.13.31,5.61.31,5.61.31,0,0,4.49,0,5.61-.3.61-.17,1.1-.65,1.26-1.26.3-1.12.3-3.45.3-3.45,0,0,.01-2.35-.3-3.47Z"/>
    <path class="cls-1" d="m8.6,12.19l3.73-2.15-3.73-2.15v4.3Z"/>
  </g>
</svg>